<svg height="240px" version="1.1" viewBox="0 0 85.438 85.438" width="400px" xmlns="http://www.w3.org/2000/svg" xmlns:xlink="http://www.w3.org/1999/xlink">
<defs>
<clipPath id="clip1">
  <path d="M 0 42 L 85.4375 42 L 85.4375 43 L 0 43 Z M 0 42 "/>
</clipPath>
<clipPath id="clip2">
  <path d="M 42 0 L 43 0 L 43 85.4375 L 42 85.4375 Z M 42 0 "/>
</clipPath>
</defs>
<g id="surface1">
<g clip-path="url(#clip1)" clip-rule="nonzero">
<path d="M -42.519781 0.00025 L 42.519281 0.00025 " style="fill:none;stroke-width:0.3985;stroke-linecap:butt;stroke-linejoin:miter;stroke:rgb(0%,0%,0%);stroke-opacity:1;stroke-miterlimit:10;" transform="matrix(1,0,0,-1,42.719,42.719)"/>
</g>
<g clip-path="url(#clip2)" clip-rule="nonzero">
<path d="M -0.00025 -42.519281 L -0.00025 42.519781 " style="fill:none;stroke-width:0.3985;stroke-linecap:butt;stroke-linejoin:miter;stroke:rgb(0%,0%,0%);stroke-opacity:1;stroke-miterlimit:10;" transform="matrix(1,0,0,-1,42.719,42.719)"/>
</g>
<path d="M 28.347406 0.00025 C 28.347406 15.6565 15.656 28.347906 -0.00025 28.347906 C -15.6565 28.347906 -28.347906 15.6565 -28.347906 0.00025 C -28.347906 -15.656 -15.6565 -28.347406 -0.00025 -28.347406 C 15.656 -28.347406 28.347406 -15.656 28.347406 0.00025 Z M 28.347406 0.00025 " style="fill:none;stroke-width:0.3985;stroke-linecap:butt;stroke-linejoin:miter;stroke:rgb(0%,0%,0%);stroke-opacity:1;stroke-miterlimit:10;" transform="matrix(1,0,0,-1,42.719,42.719)"/>
</g>
</svg>