<svg height="240px" version="1.1" viewBox="0 0 57.49 112.765" width="400px" xmlns="http://www.w3.org/2000/svg" xmlns:xlink="http://www.w3.org/1999/xlink">
<defs>
<clipPath id="clip1">
  <path d="M 0 0 L 57.488281 0 L 57.488281 112.765625 L 0 112.765625 Z M 0 0 "/>
</clipPath>
</defs>
<g id="surface1">
<g clip-path="url(#clip1)" clip-rule="nonzero">
<path d="M 0.0004375 -0.0011875 L 0.0004375 48.721469 C 0.0004375 53.123812 1.629344 59.869906 3.637156 63.783969 L 24.711375 104.877719 C 26.719188 108.795687 29.973094 108.795687 31.984813 104.877719 L 53.055125 63.783969 C 55.066844 59.869906 56.691844 53.123812 56.691844 48.721469 L 56.691844 7.971469 C 56.691844 3.569125 54.172312 2.52225 51.059031 5.635531 L 5.637156 51.057406 C 2.523875 54.170687 3.566844 56.694125 7.969188 56.694125 L 48.723094 56.694125 C 53.125437 56.694125 54.172312 54.170687 51.059031 51.057406 L 5.637156 5.635531 C 2.523875 2.52225 3.566844 -0.0011875 7.969188 -0.0011875 L 56.691844 -0.0011875 " style="fill:none;stroke-width:0.79701;stroke-linecap:butt;stroke-linejoin:miter;stroke:rgb(0%,0%,0%);stroke-opacity:1;stroke-miterlimit:10;" transform="matrix(1,0,0,-1,0.398,112.366)"/>
</g>
</g>
</svg>