<svg height="240px" version="1.1" viewBox="0 0 61.076 32.73" width="400px" xmlns="http://www.w3.org/2000/svg" xmlns:xlink="http://www.w3.org/1999/xlink">
<defs>
<clipPath id="clip1">
  <path d="M 0 0 L 61 0 L 61 32.730469 L 0 32.730469 Z M 0 0 "/>
</clipPath>
<clipPath id="clip2">
  <path d="M 0 0 L 61.074219 0 L 61.074219 32.730469 L 0 32.730469 Z M 0 0 "/>
</clipPath>
<clipPath id="clip3">
  <path d="M 0 3 L 61.074219 3 L 61.074219 32.730469 L 0 32.730469 Z M 0 3 "/>
</clipPath>
</defs>
<g id="surface1">
<g clip-path="url(#clip1)" clip-rule="nonzero">
<path d="M 4.183594 30.539062 C 4.183594 29.4375 3.292969 28.546875 2.191406 28.546875 C 1.089844 28.546875 0.199219 29.4375 0.199219 30.539062 C 0.199219 31.636719 1.089844 32.53125 2.191406 32.53125 C 3.292969 32.53125 4.183594 31.636719 4.183594 30.539062 Z M 32.53125 2.191406 C 32.53125 1.089844 31.640625 0.199219 30.539062 0.199219 C 29.4375 0.199219 28.546875 1.089844 28.546875 2.191406 C 28.546875 3.292969 29.4375 4.183594 30.539062 4.183594 C 31.640625 4.183594 32.53125 3.292969 32.53125 2.191406 Z M 60.878906 2.191406 C 60.878906 1.089844 59.984375 0.199219 58.886719 0.199219 C 57.785156 0.199219 56.894531 1.089844 56.894531 2.191406 C 56.894531 3.292969 57.785156 4.183594 58.886719 4.183594 C 59.984375 4.183594 60.878906 3.292969 60.878906 2.191406 Z M 60.878906 30.539062 C 60.878906 29.4375 59.984375 28.546875 58.886719 28.546875 C 57.785156 28.546875 56.894531 29.4375 56.894531 30.539062 C 56.894531 31.636719 57.785156 32.53125 58.886719 32.53125 C 59.984375 32.53125 60.878906 31.636719 60.878906 30.539062 Z M 60.878906 30.539062 " style=" stroke:none;fill-rule:nonzero;fill:rgb(50%,50%,50%);fill-opacity:1;"/>
</g>
<g clip-path="url(#clip2)" clip-rule="nonzero">
<path d="M 1.991594 -0.0010625 C 1.991594 1.1005 1.100969 1.991125 -0.00059375 1.991125 C -1.102156 1.991125 -1.992781 1.1005 -1.992781 -0.0010625 C -1.992781 -1.098719 -1.102156 -1.99325 -0.00059375 -1.99325 C 1.100969 -1.99325 1.991594 -1.098719 1.991594 -0.0010625 Z M 30.33925 28.346594 C 30.33925 29.448156 29.448625 30.338781 28.347062 30.338781 C 27.2455 30.338781 26.354875 29.448156 26.354875 28.346594 C 26.354875 27.245031 27.2455 26.354406 28.347062 26.354406 C 29.448625 26.354406 30.33925 27.245031 30.33925 28.346594 Z M 58.686906 28.346594 C 58.686906 29.448156 57.792375 30.338781 56.694719 30.338781 C 55.593156 30.338781 54.702531 29.448156 54.702531 28.346594 C 54.702531 27.245031 55.593156 26.354406 56.694719 26.354406 C 57.792375 26.354406 58.686906 27.245031 58.686906 28.346594 Z M 58.686906 -0.0010625 C 58.686906 1.1005 57.792375 1.991125 56.694719 1.991125 C 55.593156 1.991125 54.702531 1.1005 54.702531 -0.0010625 C 54.702531 -1.098719 55.593156 -1.99325 56.694719 -1.99325 C 57.792375 -1.99325 58.686906 -1.098719 58.686906 -0.0010625 Z M 58.686906 -0.0010625 " style="fill:none;stroke-width:0.3985;stroke-linecap:butt;stroke-linejoin:miter;stroke:rgb(50%,50%,50%);stroke-opacity:1;stroke-miterlimit:10;" transform="matrix(1,0,0,-1,2.192,30.538)"/>
</g>
<g clip-path="url(#clip3)" clip-rule="nonzero">
<path d="M -0.00059375 -0.0010625 C 28.347062 28.346594 56.694719 28.346594 56.694719 -0.0010625 " style="fill:none;stroke-width:0.3985;stroke-linecap:butt;stroke-linejoin:miter;stroke:rgb(0%,0%,0%);stroke-opacity:1;stroke-miterlimit:10;" transform="matrix(1,0,0,-1,2.192,30.538)"/>
</g>
</g>
</svg>